<?xml version="1.0" standalone="no"?>
<!DOCTYPE svg PUBLIC "-//W3C//DTD SVG 20010904//EN"
 "http://www.w3.org/TR/2001/REC-SVG-20010904/DTD/svg10.dtd">
<svg version="1.0" xmlns="http://www.w3.org/2000/svg"
 width="640.000000pt" height="640.000000pt" viewBox="0 0 640.000000 640.000000"
 preserveAspectRatio="xMidYMid meet">

<g transform="translate(0.000000,640.000000) scale(0.100000,-0.100000)"
fill="#000000" stroke="none">
<path d="M0 3200 l0 -3200 249 0 250 0 5 42 c3 24 8 75 11 113 11 121 47 274
107 450 42 124 42 124 29 105 -17 -23 -13 3 6 41 10 19 17 51 16 71 0 21 3 35
8 32 5 -3 9 7 10 23 1 32 2 42 17 98 6 22 16 85 22 140 16 147 20 164 35 159
11 -4 11 3 3 34 -9 35 -7 43 11 61 18 18 21 34 22 109 1 48 4 77 6 65 7 -39
21 -25 25 25 2 26 2 134 0 240 -4 146 -8 192 -17 192 -9 0 -14 24 -17 78 -3
61 -1 80 12 92 23 22 25 228 2 232 -12 2 -15 22 -17 98 -1 57 1 87 6 75 5 -11
5 27 2 84 -4 73 -3 102 5 97 21 -12 28 45 36 276 3 71 10 126 18 140 13 22 13
22 16 -14 2 -21 8 -38 14 -38 6 0 9 18 7 44 -2 24 -1 42 2 40 3 -2 12 50 19
116 10 88 17 120 26 120 9 0 14 12 14 36 0 38 19 124 28 124 2 0 11 -8 18 -17
12 -16 13 -13 8 25 -5 34 -4 42 7 40 10 -2 14 8 14 33 0 20 6 43 12 51 9 11
10 17 1 26 -8 8 -3 19 20 41 18 16 32 26 32 23 1 -25 20 30 20 56 0 18 7 44
16 57 9 13 13 29 9 35 -4 6 1 20 11 30 34 34 44 49 44 65 0 8 9 15 20 15 17 0
20 7 20 40 0 33 3 40 20 40 13 0 20 7 20 20 0 11 4 20 9 20 5 0 13 9 16 20 4
13 15 20 31 20 22 0 29 10 25 34 -1 4 7 27 18 50 24 48 57 81 65 63 3 -7 3 0
0 15 -3 15 -1 33 5 40 6 7 24 28 41 47 16 18 30 42 30 52 0 11 7 19 16 19 10
0 13 6 9 19 -4 13 3 25 22 40 15 11 22 21 16 21 -17 0 -16 15 2 34 8 8 16 23
18 33 2 10 11 33 20 51 10 18 15 37 12 42 -8 12 9 43 41 75 22 22 24 31 20 78
-5 45 -2 58 15 76 23 25 65 104 74 143 4 17 15 28 28 30 17 2 23 11 25 41 2
20 7 35 12 32 4 -3 6 3 3 13 -2 10 5 26 16 36 12 11 21 27 21 37 0 24 16 32
40 19 21 -11 24 -6 10 25 -8 19 -9 19 -9 1 -1 -11 -4 -17 -7 -13 -10 10 6 46
19 41 10 -3 34 39 38 66 2 15 33 38 45 33 8 -3 14 1 14 11 0 9 4 16 10 16 6 0
6 -10 0 -27 -9 -26 -9 -27 5 -9 8 11 15 32 15 48 0 15 4 28 10 28 5 0 7 -8 4
-17 -3 -10 4 -2 17 17 63 99 78 119 130 171 89 88 274 200 372 224 15 4 27 10
27 14 0 4 6 8 13 8 6 1 41 9 77 19 52 14 104 18 265 18 112 0 231 -5 271 -12
119 -20 277 -78 326 -120 11 -9 27 -12 44 -8 25 7 26 6 13 -10 -12 -15 -12
-16 9 -10 21 7 27 -1 23 -26 0 -5 12 -8 28 -8 38 0 61 -9 61 -24 0 -7 18 -18
40 -25 23 -7 40 -18 40 -27 0 -13 52 -32 71 -26 4 1 5 -7 2 -17 -3 -14 2 -21
19 -26 25 -8 68 -43 68 -56 0 -15 80 -90 89 -84 5 3 21 -8 34 -25 14 -16 33
-30 41 -30 9 0 16 -6 16 -13 0 -8 9 -22 20 -32 11 -10 20 -22 20 -28 0 -14 35
-43 70 -57 17 -7 30 -20 30 -30 0 -15 32 -53 34 -40 1 2 12 -3 25 -12 13 -9
20 -21 17 -27 -7 -11 68 -54 78 -44 3 4 6 -3 6 -15 0 -15 6 -22 19 -22 10 0
21 -8 24 -18 2 -12 17 -22 38 -26 27 -5 31 -9 19 -16 -8 -5 -12 -10 -7 -11 4
-1 12 -3 17 -4 6 -1 30 -3 54 -4 39 -1 44 -4 49 -30 6 -27 7 -28 56 -23 48 4
50 4 53 -24 2 -16 5 -27 8 -24 3 3 13 -2 22 -10 11 -11 13 -20 7 -32 -8 -15
-5 -18 16 -18 14 0 25 6 25 13 0 9 2 9 8 0 4 -6 28 -13 52 -15 31 -2 45 -8 46
-18 1 -8 2 -25 2 -38 2 -19 7 -23 30 -20 25 3 62 -25 62 -47 0 -12 34 -34 53
-35 9 0 17 -6 17 -14 0 -21 21 -31 30 -15 6 9 15 5 36 -19 16 -18 36 -32 46
-32 10 0 18 -6 18 -13 0 -14 60 -47 85 -47 18 0 20 -16 3 -23 -9 -3 -4 -13 13
-28 14 -13 34 -36 43 -51 11 -17 27 -28 40 -28 12 0 36 -14 55 -30 18 -17 37
-28 42 -25 5 3 6 -1 3 -9 -7 -18 14 -86 27 -86 5 0 9 7 9 16 0 11 14 2 41 -26
29 -30 38 -45 29 -50 -23 -14 1 -30 46 -30 l44 0 0 -43 c0 -30 6 -48 19 -59
12 -10 18 -24 14 -36 -7 -27 15 -38 32 -16 9 13 14 14 15 6 0 -7 7 -20 15 -28
22 -22 20 -91 -2 -97 -10 -2 1 -8 25 -12 41 -7 42 -9 42 -46 0 -32 3 -39 20
-39 11 0 26 -12 34 -29 19 -35 90 -111 105 -111 26 0 8 -16 -21 -18 -18 -2
-34 -4 -36 -7 -7 -7 67 -75 81 -75 21 0 57 -56 57 -91 0 -24 4 -30 16 -25 8 3
13 2 10 -2 -7 -12 11 -35 30 -38 38 -6 64 -15 62 -22 -4 -16 14 -52 23 -46 6
3 16 -2 23 -12 7 -9 19 -18 27 -20 8 -1 22 -5 32 -9 16 -7 17 68 17 1489 l0
1496 -3200 0 -3200 0 0 -3200z m3529 2781 c7 -5 9 -11 5 -14 -5 -3 -15 1 -22
9 -14 16 -5 18 17 5z m-1432 -363 c-3 -8 -6 -5 -6 6 -1 11 2 17 5 13 3 -3 4
-12 1 -19z m3023 -800 c0 -6 -6 -5 -15 2 -8 7 -15 14 -15 16 0 2 7 1 15 -2 8
-4 15 -11 15 -16z m40 12 c0 -5 -4 -10 -10 -10 -5 0 -10 5 -10 10 0 6 5 10 10
10 6 0 10 -4 10 -10z m-4028 -882 c-7 -7 -12 -8 -12 -2 0 14 12 26 19 19 2 -3
-1 -11 -7 -17z m-22 -98 c0 -5 -9 -10 -20 -10 -11 0 -20 5 -20 10 0 6 9 10 20
10 11 0 20 -4 20 -10z m4990 -124 c0 -3 -4 -8 -10 -11 -5 -3 -10 -1 -10 4 0 6
5 11 10 11 6 0 10 -2 10 -4z m-5293 -908 c-2 -13 -4 -5 -4 17 -1 22 1 32 4 23
2 -10 2 -28 0 -40z m-30 -245 c-3 -10 -5 -2 -5 17 0 19 2 27 5 18 2 -10 2 -26
0 -35z m-120 -1780 c-3 -10 -5 -4 -5 12 0 17 2 24 5 18 2 -7 2 -21 0 -30z"/>
<path d="M3732 5832 c-9 -6 -7 -13 10 -28 17 -14 19 -15 9 -2 -7 9 -10 22 -6
28 7 12 4 12 -13 2z"/>
<path d="M3770 5791 c0 -6 5 -13 10 -16 6 -3 10 1 10 9 0 9 -4 16 -10 16 -5 0
-10 -4 -10 -9z"/>
<path d="M3141 5683 c0 -10 4 -26 8 -36 6 -18 8 -18 21 -2 10 12 11 21 4 33
-15 23 -34 26 -33 5z"/>
<path d="M2880 5653 c-28 -5 -52 -23 -31 -23 7 0 10 -4 6 -10 -3 -5 -12 -7
-19 -4 -19 7 -56 -43 -56 -75 0 -15 -11 -36 -25 -50 -14 -12 -29 -37 -35 -55
l-10 -31 5 35 c3 19 8 47 11 63 4 15 2 27 -3 27 -18 0 -163 -156 -163 -175 0
-4 17 -26 37 -49 36 -39 40 -41 88 -37 27 1 52 5 54 7 3 2 -10 19 -27 37 -18
18 -32 38 -32 44 0 6 -9 13 -20 16 -11 3 -20 11 -20 17 0 10 15 11 59 7 66 -7
82 2 102 64 15 42 28 61 40 53 15 -9 37 20 48 64 7 23 16 44 21 47 12 7 14 36
3 34 -5 -1 -19 -4 -33 -6z"/>
<path d="M2676 5624 c-63 -43 -143 -127 -148 -156 -7 -38 3 -35 37 11 16 21
57 58 92 82 34 24 65 50 68 58 11 28 -11 30 -49 5z"/>
<path d="M3212 5577 c-10 -12 -15 -39 -13 -64 1 -16 57 -17 66 -2 20 31 -30
94 -53 66z"/>
<path d="M3312 5570 c-21 -35 -13 -62 13 -42 17 12 41 47 28 38 -8 -4 -13 -1
-13 8 0 22 -13 20 -28 -4z"/>
<path d="M2971 5533 c-23 -27 -41 -58 -41 -70 0 -13 -7 -24 -15 -24 -24 -2
-28 -4 -65 -27 -19 -12 -38 -22 -41 -22 -3 0 -13 -16 -22 -36 -21 -44 -10 -64
36 -64 34 0 87 43 87 71 0 9 16 34 35 55 19 21 35 43 35 50 0 15 39 64 50 64
5 0 7 -13 4 -30 -6 -27 -4 -30 17 -30 31 0 53 15 45 29 -5 8 -13 8 -26 1 -23
-12 -30 -13 -30 -1 0 5 9 12 19 16 17 5 18 10 9 35 -15 46 -48 40 -97 -17z"/>
<path d="M3411 5517 c-1 -31 23 -47 42 -28 9 9 6 13 -10 17 -12 3 -24 13 -26
23 -3 9 -5 3 -6 -12z"/>
<path d="M2336 5514 c-8 -21 -3 -26 18 -18 9 4 15 11 13 17 -6 18 -24 19 -31
1z"/>
<path d="M3336 5515 c-13 -14 -13 -20 4 -58 11 -23 20 -50 20 -59 0 -10 6 -18
13 -18 7 0 38 -15 68 -33 64 -39 106 -37 101 4 -4 34 -23 50 -71 56 -30 4 -41
10 -41 23 0 10 -6 20 -14 23 -8 3 -19 22 -26 41 -12 39 -29 45 -54 21z"/>
<path d="M2009 5518 c-1 -2 -2 -15 -3 -30 -2 -21 1 -25 11 -16 16 13 17 32 1
22 -8 -5 -9 -2 -5 9 5 13 1 25 -4 15z"/>
<path d="M3058 5449 c-10 -5 -18 -19 -18 -29 0 -17 7 -20 55 -20 59 0 63 4 39
38 -16 23 -48 28 -76 11z"/>
<path d="M1972 5428 c-7 -7 -12 -19 -12 -27 1 -12 4 -11 12 4 6 11 16 23 22
27 7 5 8 8 1 8 -6 0 -16 -5 -23 -12z"/>
<path d="M2965 5410 c-13 -15 -15 -24 -8 -31 18 -18 48 -6 45 16 -6 32 -17 37
-37 15z"/>
<path d="M2457 5406 c-4 -10 -5 -21 -2 -24 9 -9 17 6 13 25 -3 17 -4 17 -11
-1z"/>
<path d="M2336 5392 c-6 -11 0 -87 8 -101 13 -20 33 -11 46 19 10 24 10 36 0
60 -12 28 -42 41 -54 22z"/>
<path d="M3256 5378 c-11 -43 -7 -55 18 -55 31 0 42 34 19 59 -21 24 -29 23
-37 -4z"/>
<path d="M1926 5345 c-3 -9 -6 -22 -5 -28 0 -7 5 -1 10 12 5 13 8 26 5 28 -2
2 -6 -3 -10 -12z"/>
<path d="M2264 5335 c-8 -19 -5 -22 20 -27 27 -4 31 18 6 32 -16 9 -21 8 -26
-5z"/>
<path d="M2490 5325 c-6 -8 -9 -23 -5 -34 3 -10 1 -22 -5 -26 -5 -3 -10 -17
-10 -31 0 -14 -5 -34 -10 -45 -6 -11 -8 -24 -5 -30 10 -16 33 8 40 42 7 31 39
56 50 39 5 -7 41 2 63 16 2 1 1 12 -3 23 -8 25 -27 27 -59 5 -15 -9 -27 -11
-30 -5 -4 5 -2 12 4 16 15 9 12 45 -4 45 -7 0 -19 -7 -26 -15z"/>
<path d="M3351 5311 c-17 -30 -13 -73 9 -101 20 -25 20 -25 36 -5 21 29 28 64
18 94 -12 33 -48 40 -63 12z"/>
<path d="M3447 5293 c-13 -12 -7 -22 9 -16 14 5 14 3 3 -14 -11 -18 -8 -26 21
-62 32 -40 34 -40 53 -24 28 26 38 59 27 89 -9 22 -14 25 -46 19 -20 -3 -42
-1 -49 5 -6 5 -15 7 -18 3z"/>
<path d="M2262 5267 c-12 -7 -20 -15 -17 -18 3 -3 -10 -22 -29 -42 -18 -20
-36 -47 -38 -61 -13 -67 45 -52 62 17 5 23 19 59 30 80 11 20 19 37 18 37 -2
-1 -13 -6 -26 -13z"/>
<path d="M2815 5270 c-3 -5 1 -10 9 -10 8 0 18 5 21 10 3 6 -1 10 -9 10 -8 0
-18 -4 -21 -10z"/>
<path d="M3043 5269 c-42 -12 -46 -21 -33 -68 12 -44 50 -77 69 -58 8 8 12 2
17 -21 8 -38 30 -42 46 -7 10 22 8 29 -12 50 -17 18 -19 25 -9 25 8 0 20 -5
27 -12 9 -9 12 -4 12 23 0 57 -51 86 -117 68z"/>
<path d="M2327 5263 c-4 -3 -7 -11 -7 -17 0 -6 5 -5 12 2 6 6 9 14 7 17 -3 3
-9 2 -12 -2z"/>
<path d="M2442 5235 c0 -16 2 -22 5 -12 2 9 2 23 0 30 -3 6 -5 -1 -5 -18z"/>
<path d="M2328 5205 c-11 -13 -25 -22 -29 -19 -10 6 -22 -38 -17 -63 2 -13 16
-20 48 -24 49 -7 66 -3 73 14 6 15 -33 117 -44 117 -5 0 -19 -11 -31 -25z"/>
<path d="M2940 5226 c0 -2 7 -9 15 -16 9 -7 15 -8 15 -2 0 5 -7 12 -15 16 -8
3 -15 4 -15 2z"/>
<path d="M3600 5220 c0 -5 7 -10 16 -10 8 0 12 5 9 10 -3 6 -10 10 -16 10 -5
0 -9 -4 -9 -10z"/>
<path d="M3416 5194 c-3 -9 -6 -22 -6 -30 0 -15 48 -74 61 -74 11 0 16 33 7
50 -4 8 -12 27 -18 43 -10 30 -34 36 -44 11z"/>
<path d="M2905 5191 c-3 -5 5 -18 18 -28 30 -24 97 -107 97 -121 0 -23 20 -22
35 2 16 24 16 27 -5 56 -12 16 -32 33 -45 36 -13 3 -22 11 -19 18 2 6 -9 19
-25 29 -33 19 -47 21 -56 8z"/>
<path d="M2687 5166 c-21 -8 -53 -17 -72 -20 -45 -9 -74 -49 -57 -77 7 -10 12
-33 12 -50 0 -42 26 -84 65 -102 18 -9 49 -30 70 -48 44 -39 72 -31 68 17 -2
16 -6 64 -9 107 -7 81 -13 89 -55 67 -11 -6 -19 -22 -20 -38 l-1 -27 -7 30
c-3 17 -12 31 -19 31 -6 1 -19 2 -28 3 -24 2 -8 18 26 24 18 4 30 13 30 22 0
16 12 20 24 8 9 -9 48 -12 61 -5 5 4 -1 9 -15 13 -23 7 -24 7 -3 8 19 1 43 26
43 45 0 11 -75 5 -113 -8z"/>
<path d="M3564 5137 c-48 -43 -43 -69 11 -57 64 14 81 42 46 74 -19 17 -21 16
-57 -17z"/>
<path d="M2826 5128 c-8 -18 -12 -38 -9 -45 3 -8 -3 -13 -17 -13 -22 0 -23 -2
-17 -86 5 -89 9 -100 27 -89 8 5 8 10 0 20 -8 10 -7 14 6 17 13 2 17 17 19 78
2 41 6 92 10 113 9 45 -1 48 -19 5z"/>
<path d="M2871 5138 c-10 -27 -3 -32 53 -43 29 -5 36 -9 25 -16 -8 -5 -9 -9
-4 -9 6 0 16 -10 24 -22 13 -22 13 -22 -5 -6 -11 9 -40 18 -64 20 l-45 3 -3
-45 c-3 -42 -2 -44 12 -25 13 18 18 19 47 8 26 -10 35 -10 41 0 5 9 11 7 22
-8 15 -20 15 -20 16 4 0 24 0 24 15 5 25 -33 16 1 -10 40 -14 20 -25 41 -25
46 0 10 -71 70 -83 70 -4 0 -11 -10 -16 -22z m39 -88 c8 -5 11 -10 5 -10 -5 0
-17 5 -25 10 -8 5 -10 10 -5 10 6 0 17 -5 25 -10z"/>
<path d="M2450 5081 c0 -22 5 -43 10 -46 6 -4 10 12 10 39 0 25 -4 46 -10 46
-5 0 -10 -18 -10 -39z"/>
<path d="M3346 5105 c7 -17 72 -60 80 -52 3 2 -11 14 -31 25 -19 12 -35 26
-35 32 0 5 -4 10 -10 10 -5 0 -7 -7 -4 -15z"/>
<path d="M4640 5070 c0 -20 5 -30 15 -30 16 0 19 17 9 44 -10 26 -24 18 -24
-14z"/>
<path d="M2300 5056 c0 -8 3 -17 8 -20 10 -6 43 19 35 27 -12 13 -43 7 -43 -7z"/>
<path d="M2220 5040 c0 -19 29 -68 42 -72 13 -5 68 30 68 43 0 4 -13 10 -30
14 -16 4 -32 11 -35 16 -8 12 -45 11 -45 -1z"/>
<path d="M4720 5030 c0 -5 5 -10 10 -10 6 0 10 5 10 10 0 6 -4 10 -10 10 -5 0
-10 -4 -10 -10z"/>
<path d="M2496 5022 c-2 -4 -1 -14 4 -22 4 -7 6 -19 3 -26 -6 -16 42 -106 72
-134 l23 -22 12 22 c10 19 4 32 -45 106 -57 86 -60 90 -69 76z"/>
<path d="M3340 5020 c0 -14 29 -32 40 -25 17 11 11 22 -15 27 -14 3 -25 2 -25
-2z"/>
<path d="M3884 5005 c-6 -13 -9 -46 -6 -74 4 -42 10 -56 36 -78 l31 -26 5 24
c4 13 3 26 -2 27 -4 2 -8 26 -8 53 0 28 -4 48 -9 45 -10 -7 -24 22 -16 34 3 4
-1 10 -8 13 -7 2 -17 -6 -23 -18z"/>
<path d="M2178 4964 c-1 -31 0 -61 3 -66 11 -17 54 -1 68 25 11 21 9 27 -20
60 -18 20 -36 37 -40 37 -4 0 -9 -25 -11 -56z"/>
<path d="M2353 4992 c-12 -9 -34 -34 -48 -56 l-26 -38 20 -20 c12 -10 21 -26
21 -36 -1 -13 -6 -11 -25 10 -15 18 -26 24 -31 17 -11 -19 -7 -109 6 -125 18
-20 65 -15 64 8 -1 14 2 15 17 5 12 -7 15 -15 9 -22 -12 -14 7 -35 32 -35 14
0 16 6 12 33 -3 17 -7 37 -9 43 -2 5 6 21 16 35 10 13 19 30 19 37 0 20 -41
151 -49 156 -3 3 -16 -3 -28 -12z"/>
<path d="M4780 4970 c0 -5 5 -10 10 -10 6 0 10 5 10 10 0 6 -4 10 -10 10 -5 0
-10 -4 -10 -10z"/>
<path d="M2857 4953 c-11 -10 -8 -43 3 -43 6 0 10 4 10 9 0 5 3 16 6 25 6 16
-7 22 -19 9z"/>
<path d="M4960 4939 c0 -5 5 -7 10 -4 6 3 10 8 10 11 0 2 -4 4 -10 4 -5 0 -10
-5 -10 -11z"/>
<path d="M2080 4920 c0 -5 7 -10 16 -10 8 0 12 5 9 10 -3 6 -10 10 -16 10 -5
0 -9 -4 -9 -10z"/>
<path d="M4014 4858 c4 -35 9 -65 11 -67 3 -2 16 4 30 13 26 17 33 40 15 51
-5 3 -10 15 -10 27 0 14 -5 18 -15 14 -9 -3 -15 0 -15 9 0 8 -5 15 -11 15 -8
0 -9 -19 -5 -62z"/>
<path d="M2640 4878 c0 -21 38 -58 60 -58 25 0 25 12 3 38 -23 26 -63 39 -63
20z"/>
<path d="M3862 4782 c-2 -69 1 -92 10 -92 7 0 28 -23 46 -49 18 -27 48 -64 65
-83 18 -18 45 -53 61 -77 16 -24 52 -67 81 -95 84 -83 100 -135 17 -58 -22 20
-52 46 -66 57 -13 10 -22 23 -20 27 3 4 -6 18 -19 30 -13 13 -34 44 -46 69
-29 57 -108 159 -125 159 -7 0 -27 -20 -45 -44 -19 -25 -53 -59 -78 -76 -46
-33 -50 -53 -17 -91 21 -24 19 -46 -3 -27 -56 47 -85 55 -166 45 -46 -5 -77
-14 -77 -21 0 -6 9 -28 20 -49 11 -20 19 -40 18 -44 -2 -12 21 -63 44 -97 18
-26 13 -23 -27 14 -75 71 -139 140 -149 161 -10 21 -36 25 -64 9 -26 -15 -105
-39 -112 -35 -4 3 -13 26 -20 52 -7 27 -14 56 -17 65 -7 29 -57 11 -112 -42
-54 -51 -54 -49 9 -93 l24 -17 -29 -2 c-49 -2 -77 2 -107 18 -24 12 -32 13
-55 1 -40 -20 -102 -28 -147 -17 -37 8 -43 6 -87 -31 -60 -50 -92 -59 -199
-58 -47 1 -114 -1 -150 -5 -75 -9 -111 2 -152 42 -84 84 -128 116 -128 92 0
-6 6 -10 14 -10 11 0 13 -7 6 -30 -9 -31 -7 -92 5 -147 10 -43 -1 -42 -19 2
-8 19 -20 35 -26 35 -6 0 -8 -5 -4 -11 4 -7 6 -44 5 -84 -2 -55 2 -76 14 -89
14 -14 15 -21 4 -51 -15 -41 -26 -44 -39 -10 -12 31 -23 32 -39 3 -7 -13 -30
-36 -51 -52 -43 -32 -43 -32 -90 -216 -18 -69 -37 -130 -42 -137 -5 -6 -13
-33 -18 -60 -7 -42 -8 -44 -9 -14 0 19 10 63 24 98 16 39 27 87 28 127 2 41 9
73 21 91 20 31 33 72 46 145 6 38 8 40 9 13 2 -46 13 -47 55 -4 l37 38 -16
109 c-9 60 -19 126 -22 147 -3 20 -9 37 -14 37 -17 0 -124 -113 -111 -118 7
-2 24 4 38 13 14 9 27 15 30 13 2 -2 -23 -21 -56 -42 -109 -70 -143 -107 -202
-223 -94 -183 -151 -323 -154 -378 -9 -131 -10 -254 -4 -250 5 3 11 47 15 97
4 58 17 119 32 163 14 39 36 105 49 147 21 70 59 156 52 118 -4 -19 -58 -188
-69 -215 -23 -56 -38 -141 -44 -245 -3 -63 -13 -136 -21 -162 -12 -37 -15 -92
-12 -261 2 -150 0 -218 -8 -228 -7 -8 -14 -36 -18 -64 -3 -27 -8 -63 -12 -80
-10 -50 -12 -388 -2 -420 23 -74 5 -185 -39 -241 -17 -22 -40 -74 -53 -119
-54 -190 -82 -279 -90 -290 -5 -6 -17 -33 -28 -60 -11 -28 -33 -74 -50 -101
-16 -28 -35 -67 -43 -87 -7 -20 -16 -37 -19 -37 -4 0 -15 -26 -25 -57 -11 -32
-23 -63 -28 -70 -5 -7 -10 -22 -12 -35 -7 -40 -23 -102 -35 -138 -7 -19 -20
-55 -28 -80 -9 -25 -22 -51 -29 -58 -7 -7 -13 -19 -13 -25 0 -7 -21 -27 -45
-46 -25 -18 -45 -38 -45 -43 0 -6 -8 -22 -19 -36 -10 -15 -27 -51 -37 -80 -10
-28 -22 -52 -26 -52 -5 0 -8 -6 -8 -14 0 -7 -14 -60 -31 -117 -17 -57 -35
-121 -40 -143 -5 -21 -16 -48 -24 -60 -11 -15 -15 -49 -15 -123 l0 -103 439 0
440 0 32 100 c32 97 33 100 16 135 -9 20 -17 45 -17 56 0 11 -7 36 -16 57 -24
56 -28 233 -9 366 18 122 61 306 76 321 5 5 9 19 9 31 0 13 5 26 10 29 6 3 10
12 10 18 0 7 -4 6 -10 -3 -5 -8 -10 -10 -10 -5 0 6 4 15 10 21 5 5 19 46 31
89 11 44 36 127 55 185 41 123 61 203 75 303 5 39 16 110 23 157 13 86 14 129
1 169 -5 16 -2 21 12 21 33 0 40 -17 31 -73 -4 -29 -8 -88 -7 -132 0 -44 0
-89 0 -99 0 -19 0 -19 13 0 7 10 19 41 26 67 7 26 15 46 17 43 3 -2 -14 -73
-36 -158 -39 -151 -53 -198 -152 -503 -26 -83 -53 -185 -60 -225 -14 -92 -6
-365 16 -500 23 -143 31 -255 16 -246 -16 10 -41 -18 -41 -46 0 -18 -2 -20
-10 -8 -5 8 -10 12 -12 10 -8 -11 -88 -169 -88 -174 0 -4 31 -6 69 -6 80 0 81
1 82 93 2 112 17 120 18 10 l1 -103 169 0 170 0 5 43 c7 53 34 296 41 362 8
76 63 342 85 413 14 42 40 87 81 140 33 42 79 102 101 132 64 86 204 220 236
226 21 4 35 19 57 60 16 30 34 54 40 54 5 0 4 4 -3 8 -10 7 -9 17 3 52 9 24
13 51 9 60 -3 8 -10 29 -14 45 -4 17 -11 39 -16 49 -7 18 -4 17 26 -4 37 -26
61 -31 72 -15 4 6 8 -2 8 -17 0 -17 5 -28 14 -28 7 0 19 -13 26 -30 7 -16 16
-30 21 -30 5 0 6 -7 3 -15 -4 -8 1 -17 10 -21 21 -8 11 -24 -15 -24 -11 0 -51
-16 -90 -36 -75 -39 -101 -71 -92 -116 8 -44 27 -53 81 -40 26 6 48 9 49 8 2
-1 -14 -11 -34 -22 -20 -10 -37 -27 -39 -37 -1 -10 -10 -27 -18 -36 -9 -10
-16 -21 -16 -25 0 -4 -16 -27 -35 -50 -19 -24 -35 -48 -35 -55 0 -6 -4 -11 -8
-11 -4 0 -15 -12 -24 -27 -22 -37 -48 -71 -74 -97 -12 -12 -29 -37 -39 -56
-10 -19 -38 -54 -62 -77 -25 -23 -46 -48 -47 -57 -1 -9 -13 -28 -27 -43 -30
-34 -49 -77 -49 -110 0 -13 -5 -34 -12 -46 -6 -12 -13 -38 -14 -57 -1 -19 -9
-100 -16 -180 -7 -80 -13 -161 -12 -180 1 -19 2 -52 3 -73 l1 -37 1960 0
c1078 0 1960 3 1960 7 0 3 -24 31 -52 62 -29 31 -64 71 -78 90 -28 38 -74 96
-152 190 -29 35 -64 78 -77 97 -26 38 -46 45 -38 14 5 -19 -35 -132 -57 -159
-15 -20 -86 -51 -115 -51 -23 0 -23 1 -8 18 10 10 15 21 12 24 -3 3 2 21 10
41 8 20 15 52 15 71 0 19 6 37 13 39 10 4 10 6 0 6 -7 1 -13 6 -13 11 0 6 18
10 39 10 43 0 51 10 51 64 0 40 -33 86 -62 86 -17 0 -18 3 -8 14 26 32 -53
156 -320 501 -44 58 -199 209 -295 290 -60 51 -151 130 -201 176 -50 46 -110
100 -134 119 -63 49 -158 148 -208 214 -13 17 -40 49 -60 71 -20 22 -46 57
-57 78 -21 43 -67 85 -73 68 -2 -6 -11 -11 -21 -11 -27 0 -118 -47 -124 -64
-4 -9 -17 -16 -30 -16 -25 0 -57 -28 -57 -48 0 -7 -7 -12 -15 -12 -9 0 -18 -7
-21 -15 -4 -8 -15 -15 -26 -15 -23 0 -75 -26 -80 -40 -1 -5 -16 -12 -33 -14
-16 -2 -57 -14 -89 -25 -54 -19 -96 -20 -96 -3 0 9 72 50 207 117 62 30 116
63 121 72 6 9 16 14 25 10 9 -3 19 -2 22 2 2 5 20 12 38 15 18 3 40 14 49 24
8 9 30 28 47 41 55 41 56 54 17 119 -19 31 -48 71 -63 87 -56 60 -101 122
-142 193 -22 41 -41 76 -41 79 0 3 -9 17 -20 33 -22 30 -100 216 -100 237 0
19 -25 20 -92 2 -34 -9 -38 -13 -38 -43 0 -29 -14 -48 -97 -136 -54 -56 -104
-111 -112 -122 -21 -31 -164 -95 -242 -109 -39 -7 -73 -18 -76 -25 -2 -6 5
-51 16 -99 23 -96 25 -127 12 -153 -5 -9 -15 -48 -22 -87 -14 -82 -30 -122
-58 -152 -12 -12 -21 -25 -21 -29 0 -4 -10 -18 -21 -31 -20 -21 -21 -23 -5
-29 10 -4 34 -1 55 6 73 24 115 142 109 305 -2 75 14 103 45 74 18 -16 19 -29
13 -202 -7 -206 -12 -243 -35 -271 -15 -18 -15 -19 2 -13 9 4 17 3 17 -2 0
-29 -115 -84 -181 -86 -32 -1 -55 -9 -81 -28 -19 -15 -43 -27 -52 -27 -10 0
-16 -5 -14 -12 4 -12 -26 -48 -41 -48 -14 0 -8 -34 9 -47 22 -18 -1 -16 -50 3
-29 12 -46 27 -60 55 -11 21 -20 43 -20 50 0 6 -13 31 -30 55 -27 40 -28 44
-10 44 11 0 28 9 38 21 9 11 29 35 44 52 32 38 24 62 -23 72 -18 4 -27 10 -22
14 5 3 12 14 16 24 5 13 18 17 64 17 112 0 140 11 191 74 6 8 12 22 12 30 0 8
9 21 21 29 11 8 28 35 36 59 21 59 27 230 11 292 -13 46 -16 50 -58 61 -25 7
-59 18 -76 25 -26 11 -33 11 -50 -3 -64 -52 -244 -176 -289 -200 -47 -23 -165
-142 -165 -165 0 -11 12 -29 26 -39 l25 -19 -33 -2 c-38 -3 -128 18 -128 30 0
4 -35 8 -77 8 -84 0 -132 -17 -190 -67 -60 -52 -92 -74 -122 -84 -17 -6 -31
-15 -31 -20 0 -6 -8 -9 -17 -7 -11 2 -24 -9 -35 -32 -10 -19 -16 -26 -14 -15
32 130 42 166 58 204 10 25 28 51 38 58 11 8 20 22 20 31 1 22 25 54 34 45 4
-4 11 -1 16 7 8 13 10 13 10 -1 0 -9 7 -19 15 -23 8 -3 14 -2 12 2 -1 5 11 20
27 35 27 25 106 169 106 193 0 7 7 14 15 17 21 9 48 112 40 154 -4 25 -2 38 7
44 9 6 6 9 -9 9 -13 0 -23 5 -23 10 0 6 -10 10 -22 10 -12 0 -19 3 -15 6 3 4
22 3 41 0 26 -5 43 -17 60 -42 l24 -35 10 28 c6 15 24 66 42 113 17 47 38 127
45 177 8 51 24 111 35 132 25 50 25 55 -4 116 -14 27 -22 53 -19 57 2 5 6 27
8 50 3 22 7 44 11 47 3 3 18 -9 32 -27 15 -18 41 -41 57 -52 44 -29 128 -24
131 8 1 6 2 18 3 26 0 7 15 16 31 18 24 4 30 1 30 -14 0 -11 4 -17 9 -13 5 3
13 0 16 -6 10 -16 -26 -38 -63 -39 -18 0 -34 -6 -36 -12 -2 -7 -8 -29 -14 -48
-13 -40 -6 -80 14 -80 8 0 14 -5 14 -11 0 -5 4 -8 9 -5 5 4 12 0 14 -6 4 -8 8
-4 13 10 7 23 7 23 21 2 8 -11 18 -18 23 -15 4 3 14 -2 21 -11 11 -13 10 -17
-4 -25 -9 -6 -17 -17 -17 -25 0 -14 -2 -14 -16 0 -23 24 -25 21 -23 -33 2 -42
7 -53 32 -72 23 -17 31 -19 37 -8 7 10 12 10 22 1 21 -17 89 -25 118 -14 14 5
34 6 45 2 19 -7 19 -7 -2 -18 -12 -7 -44 -12 -72 -12 -27 0 -51 -5 -53 -11 -2
-7 -12 -7 -30 2 -34 15 -58 6 -58 -23 0 -15 24 -46 69 -90 37 -37 76 -83 85
-103 22 -45 74 -105 91 -105 7 0 15 -5 17 -11 4 -13 88 -22 88 -10 0 5 9 7 19
4 43 -11 203 33 266 74 67 44 167 156 195 220 8 17 23 34 33 37 14 3 17 10 12
25 -5 17 2 23 44 41 50 22 57 40 24 65 -10 8 -7 14 11 30 13 12 28 19 35 17 6
-2 11 4 11 13 0 12 7 15 28 13 23 -3 28 -8 30 -37 2 -18 -1 -38 -7 -44 -7 -7
-5 -14 7 -23 10 -8 12 -13 5 -14 -34 -1 16 -122 66 -160 24 -18 31 -30 28 -47
-3 -14 1 -23 8 -23 15 0 27 -42 19 -64 -5 -12 -2 -15 10 -10 11 4 16 1 16 -10
0 -9 11 -28 25 -42 14 -14 25 -29 25 -34 0 -6 7 -10 15 -10 9 0 20 -11 24 -24
5 -13 17 -26 25 -29 9 -4 16 -13 16 -22 0 -16 55 -95 93 -135 14 -14 41 -60
61 -102 21 -43 41 -78 46 -78 6 0 9 -4 8 -8 -5 -14 58 -62 80 -62 36 0 52 -11
52 -36 0 -13 4 -24 9 -24 6 0 9 -9 8 -20 -1 -11 -4 -20 -8 -20 -4 0 -9 -6 -12
-12 -3 -10 13 -13 62 -13 59 0 66 -2 66 -20 0 -14 -8 -21 -27 -23 -14 -2 -32
-10 -40 -19 -11 -14 -10 -15 10 -9 16 5 24 3 28 -8 8 -20 26 -10 22 11 -2 9 3
18 10 20 7 3 12 -4 12 -17 0 -18 5 -21 33 -18 43 4 45 -24 2 -32 l-30 -6 48
-47 c26 -27 47 -52 47 -57 0 -16 40 -11 46 5 4 8 14 15 24 15 14 0 17 -5 12
-22 -3 -13 -13 -28 -21 -35 -14 -11 -14 -12 5 -13 11 0 34 -13 50 -30 16 -16
39 -30 52 -30 15 0 22 -6 22 -19 0 -21 39 -74 40 -53 0 10 4 10 20 0 13 -8 19
-20 16 -31 -4 -16 1 -18 32 -15 30 2 37 -1 41 -17 4 -23 99 -114 119 -115 7 0
15 -7 18 -15 4 -8 12 -15 20 -15 8 0 13 -9 11 -22 -1 -16 5 -23 23 -28 20 -5
25 -12 24 -35 0 -30 59 -106 72 -92 10 10 34 -12 34 -32 0 -21 45 -83 53 -74
4 3 7 -1 7 -10 0 -9 5 -17 10 -17 6 0 10 -6 10 -13 0 -8 11 -19 25 -25 14 -6
25 -16 25 -21 0 -5 8 -17 18 -27 9 -10 17 -25 18 -33 3 -46 4 -48 29 -46 16 2
25 -2 25 -10 0 -8 19 -42 43 -76 56 -82 55 -80 61 -109 3 -14 19 -41 36 -60
23 -26 28 -36 17 -38 -11 -2 -4 -15 24 -45 21 -23 39 -46 39 -50 0 -14 44 -46
63 -47 9 0 17 -4 17 -9 0 -5 29 -39 65 -76 36 -36 65 -70 65 -74 0 -5 11 -20
25 -34 16 -15 22 -28 15 -32 -5 -3 -10 -2 -10 4 0 11 -56 41 -63 34 -3 -2 7
-17 21 -33 15 -16 35 -39 45 -52 10 -13 16 -16 14 -8 -7 23 42 20 54 -2 6 -10
16 -18 23 -18 8 0 30 -15 51 -34 l38 -35 -21 -35 -21 -36 99 0 100 0 0 805 0
806 -27 24 c-16 13 -32 24 -38 25 -5 0 -27 19 -48 42 -24 27 -41 38 -44 31 -2
-7 -11 -13 -20 -13 -12 0 -13 8 -8 42 4 24 12 46 17 49 14 9 1 46 -18 53 -20
8 -61 -20 -67 -45 -6 -23 -27 -17 -27 7 0 8 -4 14 -9 14 -5 0 -7 9 -4 21 3 12
0 25 -7 29 -7 4 -9 13 -5 20 6 9 10 9 17 -1 7 -10 8 -8 3 7 -6 23 20 94 35 94
6 0 10 5 10 10 0 6 -7 10 -15 10 -17 0 -52 18 -73 37 -16 16 -47 -1 -58 -32
-6 -16 -8 -13 -11 17 -4 39 -10 43 -62 38 -14 -1 -21 2 -17 9 5 7 -2 7 -23 0
-17 -6 -39 -24 -49 -41 l-19 -30 -6 42 c-7 52 -9 55 -59 55 -29 0 -45 -6 -58
-23 -29 -35 -42 -27 -25 15 12 29 13 38 3 45 -10 6 -9 8 2 8 8 1 -7 11 -35 24
-27 12 -70 32 -95 43 -25 12 -69 26 -97 31 -48 8 -53 8 -53 -9 0 -27 -14 -24
-30 6 -12 22 -21 25 -72 27 -156 4 -156 5 -59 76 76 54 99 50 336 -63 66 -31
183 -84 260 -117 154 -66 347 -165 467 -240 43 -26 80 -48 83 -48 3 0 5 266 5
590 0 325 -1 590 -3 590 -15 0 -97 -34 -97 -40 0 -4 16 -20 36 -35 58 -45 36
-59 -110 -70 -181 -15 -254 -25 -316 -45 -118 -38 -340 -180 -365 -234 -13
-28 -25 -39 -59 -54 -36 -16 -57 -2 -35 25 8 10 23 33 33 52 23 41 100 117
139 137 15 8 27 18 27 22 0 5 18 16 40 26 22 10 40 21 40 26 0 5 18 19 40 31
22 13 40 26 40 31 0 4 8 8 18 9 14 0 14 2 -3 9 -28 12 -93 12 -100 0 -3 -5
-17 -10 -31 -10 -14 0 -51 -13 -83 -29 -71 -35 -221 -132 -221 -143 0 -4 -5
-8 -11 -8 -18 0 -88 -59 -194 -162 -54 -54 -103 -98 -107 -98 -37 0 70 -70
137 -90 70 -20 71 -23 10 -36 -37 -8 -64 -9 -70 -3 -18 18 -26 9 -11 -13 9
-12 16 -31 16 -41 0 -14 -5 -17 -22 -12 -46 14 -96 48 -107 72 -8 18 -15 22
-24 15 -17 -14 -47 -11 -47 5 0 7 4 13 9 13 13 0 -4 57 -23 76 -12 12 -15 28
-10 67 5 43 2 60 -19 101 -21 41 -23 54 -15 85 6 20 8 62 4 95 -6 57 -12 86
-41 191 -8 28 -17 93 -20 145 -6 94 -37 259 -55 292 -6 10 -10 28 -10 41 0 25
-54 245 -71 292 -29 78 -53 121 -89 159 -105 113 -205 241 -265 340 -47 77
-170 210 -186 200 -5 -3 -6 1 -4 8 5 13 -80 108 -97 108 -5 0 -6 5 -2 12 5 8
2 9 -9 5 -10 -3 -17 -2 -17 3 0 5 -6 7 -14 4 -9 -3 -17 6 -24 25 -6 17 -34 54
-61 81 -28 28 -51 57 -51 65 0 8 -4 15 -9 15 -5 0 -11 8 -13 17 -2 9 -4 -25
-6 -75z m-22 -467 c0 -30 -15 -33 -30 -6 -14 27 -13 31 10 31 15 0 20 -7 20
-25z m-410 -17 c0 -6 -7 -7 -16 -4 -9 3 -27 6 -40 6 -13 0 -24 3 -24 8 0 4 18
6 40 4 22 -2 40 -9 40 -14z m74 -54 c9 -3 16 -10 16 -15 0 -5 15 -24 34 -43
32 -30 72 -104 62 -113 -2 -3 -25 16 -51 42 -26 25 -58 53 -71 62 -26 17 -33
39 -9 29 10 -3 15 1 15 13 0 11 -6 22 -12 24 -7 3 -10 6 -6 6 3 1 13 -2 22 -5z
m112 -44 c8 0 14 -9 14 -20 0 -11 9 -29 20 -40 12 -12 15 -22 9 -26 -12 -7
-29 13 -29 34 0 6 -4 12 -8 12 -9 0 -33 45 -31 58 0 4 3 1 6 -5 2 -7 11 -13
19 -13z m678 -61 c30 -54 72 -159 58 -144 -5 6 -27 44 -48 85 -21 41 -46 86
-56 99 -10 13 -18 29 -18 35 0 17 36 -25 64 -75z m-2217 19 c-3 -8 -6 -5 -6 6
-1 11 2 17 5 13 3 -3 4 -12 1 -19z m1954 -71 c20 -34 67 -123 104 -198 49 -97
77 -142 96 -153 27 -16 94 -124 84 -135 -12 -11 -79 36 -111 77 -18 24 -47 78
-64 120 -71 172 -134 305 -152 315 -20 13 -25 49 -5 41 6 -2 28 -33 48 -67z
m-1856 8 c35 3 56 -3 93 -23 l47 -27 -90 -5 c-94 -5 -104 -12 -70 -50 9 -10
11 -20 5 -30 -17 -26 -11 -42 26 -76 22 -21 30 -34 20 -34 -8 0 -18 5 -21 10
-3 6 -11 10 -18 10 -6 0 4 -16 23 -35 33 -34 34 -36 23 -78 -21 -79 25 -159
147 -257 70 -56 78 -73 64 -127 -9 -33 -17 -29 -50 22 -15 25 -31 45 -34 45
-14 0 -98 -247 -109 -322 -5 -35 -21 -88 -35 -118 -40 -89 -42 -108 -13 -119
34 -13 42 -30 23 -49 -15 -15 -16 -15 -16 0 0 11 -23 25 -72 44 -40 15 -80 33
-89 40 -8 8 -19 14 -22 14 -12 0 -7 -40 9 -71 22 -44 12 -59 -18 -26 l-26 27
-6 -25 c-4 -14 -4 -30 -1 -34 3 -5 -1 -11 -9 -14 -11 -4 -8 -27 17 -114 29
-104 30 -111 18 -183 -12 -71 -63 -224 -82 -244 -5 -6 -9 -27 -9 -47 0 -47
-24 -70 -47 -46 -15 15 -15 21 2 74 9 32 24 83 31 113 8 30 21 80 30 110 26
95 24 184 -7 282 -15 48 -37 104 -48 124 -21 35 -21 41 -10 134 l12 97 -52
103 c-53 106 -45 117 16 22 19 -30 37 -51 40 -48 12 11 -9 75 -41 129 -30 49
-32 57 -16 57 20 0 32 49 18 74 -9 17 27 152 43 162 13 8 11 -26 -6 -82 -23
-77 -20 -107 14 -127 16 -9 31 -17 34 -17 11 0 63 134 92 240 23 83 43 132 69
170 33 48 36 58 30 94 -3 23 -17 54 -31 70 -21 25 -29 63 -12 54 3 -2 14 4 25
12 10 8 16 10 12 6 -9 -10 23 -37 34 -30 13 8 9 22 -11 41 -10 10 -21 34 -23
53 -3 19 -8 44 -13 55 -6 16 -3 15 18 -6 22 -23 33 -26 72 -24z m1538 -52 c-2
-6 14 -30 36 -53 23 -24 41 -50 41 -59 0 -9 3 -27 6 -41 8 -31 -101 130 -115
171 l-10 29 23 -17 c13 -10 21 -23 19 -30z m2 -108 c20 -27 42 -66 51 -85 51
-118 76 -160 92 -158 18 3 56 -58 46 -74 -16 -25 -89 51 -110 115 -36 114 -95
214 -116 200 -9 -5 -14 7 -22 57 -7 39 -8 40 59 -55z m798 -104 c78 -82 87
-95 65 -104 -27 -10 -55 13 -103 82 -28 39 -56 71 -62 71 -7 0 -13 11 -13 25
0 36 18 24 113 -74z m-645 12 c-2 -10 -12 -18 -23 -18 -11 0 -21 8 -23 18 -3
13 3 17 23 17 20 0 26 -4 23 -17z m-1918 -30 c0 -5 -10 -19 -21 -33 -11 -14
-18 -18 -15 -10 3 8 9 23 12 33 6 17 24 24 24 10z m1624 -18 c-4 -8 -8 -15
-10 -15 -2 0 -4 7 -4 15 0 8 4 15 10 15 5 0 7 -7 4 -15z m295 -70 c1 -16 -1
-17 -9 -5 -5 8 -9 31 -9 50 l1 35 8 -30 c4 -16 8 -39 9 -50z m-1379 40 c0 -7
-7 -18 -15 -25 -13 -11 -15 -8 -15 18 0 24 4 30 15 26 8 -4 15 -12 15 -19z m4
-160 c5 -22 4 -26 -4 -15 -5 8 -10 24 -10 34 0 26 6 18 14 -19z m-779 -54
c-13 -40 -14 -60 -5 -114 5 -36 11 -85 11 -109 1 -30 11 -58 34 -93 61 -94 67
-113 36 -111 -11 0 -35 21 -54 46 -32 43 -35 51 -38 135 -6 157 -4 229 10 275
8 25 16 39 18 33 3 -7 -3 -35 -12 -62z m782 -68 c-3 -10 -5 -4 -5 12 0 17 2
24 5 18 2 -7 2 -21 0 -30z m2220 -35 c-3 -8 -6 -5 -6 6 -1 11 2 17 5 13 3 -3
4 -12 1 -19z m33 -71 c0 -11 4 -15 12 -11 6 4 8 3 5 -3 -8 -12 17 -85 26 -76
4 3 7 -6 7 -21 0 -23 -2 -25 -13 -14 -41 42 -84 148 -70 171 8 13 33 -22 33
-46z m-1007 -104 c-3 -7 -1 -13 5 -13 15 0 23 -30 13 -48 -8 -15 -10 -15 -14
-2 -3 8 -10 30 -16 49 -15 45 -14 54 3 39 7 -7 11 -19 9 -25z m-215 -761 c-13
-30 -38 -102 -43 -127 -5 -22 -9 -26 -15 -15 -18 32 22 150 51 150 6 0 9 -3 7
-8z m176 -439 c-3 -32 -14 -69 -24 -83 -11 -18 -15 -39 -12 -71 3 -39 0 -49
-18 -62 -34 -24 -92 -132 -111 -206 -7 -31 -13 -40 -19 -31 -13 21 -9 88 5 94
19 7 26 46 8 46 -9 0 0 17 25 48 38 46 83 125 80 140 0 4 1 14 4 22 3 8 16 48
29 88 13 39 27 72 32 72 5 0 5 -26 1 -57z m2390 -228 c4 -20 4 -44 1 -55 -5
-16 -10 -17 -31 -8 -28 13 -31 38 -8 73 22 34 31 31 38 -10z m-2579 -295 c3
-16 15 -41 26 -55 22 -27 19 -31 -13 -14 -18 10 -20 9 -15 -5 9 -23 -13 -29
-49 -15 -16 6 -23 13 -16 16 6 3 12 21 12 40 0 22 7 41 18 49 25 19 30 17 37
-16z m65 -131 c0 -11 -4 -17 -10 -14 -5 3 -10 13 -10 21 0 8 5 14 10 14 6 0
10 -9 10 -21z m-14 -97 c-18 -16 -18 -16 -6 6 6 13 14 21 18 18 3 -4 -2 -14
-12 -24z m-76 -58 c-8 -8 -23 -20 -34 -25 -13 -6 -10 0 9 15 34 29 43 33 25
10z m-10 -54 c-8 -6 -22 -10 -30 -10 -8 0 -4 6 10 13 27 15 44 12 20 -3z m-50
-5 c0 -8 -9 -15 -20 -15 -20 0 -26 11 -13 23 12 13 33 7 33 -8z m-53 -21 c-3
-3 -12 -4 -19 -1 -8 3 -5 6 6 6 11 1 17 -2 13 -5z m-444 -206 c-4 -7 -6 -22
-5 -33 1 -11 -2 -26 -7 -34 -7 -12 -12 -11 -30 1 -19 14 -20 16 -6 22 9 3 15
12 12 19 -2 6 3 17 12 24 21 16 34 16 24 1z m537 -268 c0 -5 -2 -10 -4 -10 -3
0 -8 5 -11 10 -3 6 -1 10 4 10 6 0 11 -4 11 -10z m-32 -135 c-2 -2 -17 -7 -33
-11 -27 -7 -29 -6 -16 9 7 10 20 17 27 17 8 0 15 6 15 13 1 6 3 4 6 -6 3 -10
3 -20 1 -22z m-748 -45 c0 -5 -5 -10 -11 -10 -5 0 -7 5 -4 10 3 6 8 10 11 10
2 0 4 -4 4 -10z m-27 -35 c-3 -9 -8 -14 -10 -11 -3 3 -2 9 2 15 9 16 15 13 8
-4z m744 -161 c1 -5 -7 -20 -18 -34 -11 -14 -17 -19 -13 -11 5 11 3 13 -9 8
-10 -3 -17 -2 -17 4 0 5 7 12 15 15 8 4 15 13 15 21 0 15 22 13 27 -3z"/>
<path d="M3510 4191 c0 -6 4 -13 10 -16 6 -3 7 1 4 9 -7 18 -14 21 -14 7z"/>
<path d="M1834 3328 c3 -7 9 -21 12 -30 4 -10 10 -18 14 -18 4 0 11 -10 15
-22 l8 -23 4 22 c3 13 -5 36 -17 53 -21 29 -47 42 -36 18z"/>
<path d="M2626 4842 c-3 -6 -1 -14 5 -17 15 -10 25 3 12 16 -7 7 -13 7 -17 1z"/>
<path d="M3462 4818 c-11 -40 -10 -42 18 -33 17 5 19 10 9 21 -6 7 -9 21 -5
29 3 8 1 15 -4 15 -5 0 -13 -15 -18 -32z"/>
<path d="M2546 4826 c3 -9 11 -16 16 -16 13 0 5 23 -10 28 -7 2 -10 -2 -6 -12z"/>
<path d="M4128 4820 c-60 -18 -114 -73 -102 -104 12 -31 36 -27 71 14 25 29
42 40 61 40 26 -1 26 -2 -10 -20 -44 -24 -80 -67 -70 -85 7 -12 54 -64 181
-200 31 -33 65 -73 74 -88 10 -16 23 -27 29 -25 38 13 50 181 19 270 -36 105
-82 159 -158 188 -59 22 -57 22 -95 10z"/>
<path d="M3960 4813 c0 -5 9 -18 20 -28 11 -10 20 -14 20 -8 0 5 -9 18 -20 28
-11 10 -20 14 -20 8z"/>
<path d="M5049 4809 c-10 -6 -7 -9 14 -9 29 0 35 5 14 13 -8 3 -20 1 -28 -4z"/>
<path d="M2426 4793 c-8 -28 -4 -113 6 -119 5 -3 20 -3 34 0 20 5 24 12 24 44
-1 25 -9 46 -25 65 -28 32 -32 33 -39 10z"/>
<path d="M2584 4784 c7 -17 -17 -58 -27 -47 -9 9 -8 -29 1 -43 11 -18 70 -45
76 -35 3 5 19 11 36 15 22 4 35 15 44 37 9 20 15 27 18 18 3 -8 6 3 6 24 0 38
0 38 -31 30 -43 -10 -101 -7 -105 6 -2 6 -8 11 -14 11 -6 0 -7 -7 -4 -16z"/>
<path d="M2835 4770 c-3 -5 -2 -10 4 -10 5 0 13 5 16 10 3 6 2 10 -4 10 -5 0
-13 -4 -16 -10z"/>
<path d="M3580 4776 c0 -2 7 -7 16 -10 8 -3 12 -2 9 4 -6 10 -25 14 -25 6z"/>
<path d="M3200 4750 c0 -5 5 -10 11 -10 5 0 7 5 4 10 -3 6 -8 10 -11 10 -2 0
-4 -4 -4 -10z"/>
<path d="M3490 4750 c0 -13 11 -13 30 0 12 8 11 10 -7 10 -13 0 -23 -4 -23
-10z"/>
<path d="M3000 4724 c0 -9 5 -14 12 -12 18 6 21 28 4 28 -9 0 -16 -7 -16 -16z"/>
<path d="M3040 4714 c0 -13 3 -14 13 -5 8 6 18 7 22 3 5 -4 5 -1 1 6 -10 18
-36 15 -36 -4z"/>
<path d="M3583 4723 c-18 -7 -16 -23 2 -23 8 0 15 7 15 15 0 8 -1 15 -2 14 -2
0 -9 -3 -15 -6z"/>
<path d="M2336 4693 c-14 -14 -5 -54 17 -73 23 -23 66 -22 94 2 12 9 6 16 -29
38 -52 32 -74 41 -82 33z"/>
<path d="M3000 4685 c0 -3 4 -13 9 -23 5 -9 15 -32 21 -49 14 -38 38 -43 44
-10 3 12 7 34 11 50 5 23 2 27 -17 28 -13 0 -33 2 -45 5 -13 2 -23 2 -23 -1z"/>
<path d="M2280 4641 c0 -35 33 -76 38 -48 3 15 -24 77 -33 77 -3 0 -5 -13 -5
-29z"/>
<path d="M2952 4645 c0 -16 2 -22 5 -12 2 9 2 23 0 30 -3 6 -5 -1 -5 -18z"/>
<path d="M3610 4631 c-28 -5 -31 -8 -17 -14 26 -10 89 -9 83 2 -4 5 0 12 6 14
18 7 -29 6 -72 -2z"/>
<path d="M5288 4633 c7 -3 16 -2 19 1 4 3 -2 6 -13 5 -11 0 -14 -3 -6 -6z"/>
<path d="M3105 4620 c-3 -5 1 -10 10 -10 9 0 13 5 10 10 -3 6 -8 10 -10 10 -2
0 -7 -4 -10 -10z"/>
<path d="M2471 4594 c-33 -42 -25 -84 15 -84 32 0 50 37 37 76 -13 38 -27 40
-52 8z"/>
<path d="M2996 4585 c-7 -20 3 -45 19 -45 11 0 31 30 23 34 -2 1 -10 7 -19 14
-14 10 -18 10 -23 -3z"/>
<path d="M2812 4518 c-6 -24 -10 -35 -11 -25 -1 11 -7 17 -17 15 -14 -3 -22
-19 -8 -17 4 0 10 -5 15 -13 12 -19 26 0 34 45 10 51 -2 47 -13 -5z"/>
<path d="M3203 4543 c3 -10 8 -28 12 -40 8 -29 26 -29 43 -2 15 24 17 21 -26
43 -32 17 -34 17 -29 -1z"/>
<path d="M5390 4549 c0 -5 5 -7 10 -4 6 3 10 8 10 11 0 2 -4 4 -10 4 -5 0 -10
-5 -10 -11z"/>
<path d="M3655 4500 c-3 -5 1 -13 10 -16 22 -9 29 1 11 15 -10 8 -16 9 -21 1z"/>
<path d="M2379 4496 c-11 -11 3 -65 18 -71 9 -3 17 -4 18 -3 5 6 -31 79 -36
74z"/>
<path d="M3390 4478 c0 -9 5 -20 10 -23 13 -8 13 5 0 25 -8 13 -10 13 -10 -2z"/>
<path d="M2523 4460 c-18 -11 -33 -22 -33 -25 0 -14 49 -2 75 20 26 21 27 24
10 25 -11 0 -35 -9 -52 -20z"/>
<path d="M2850 4465 c0 -9 5 -15 11 -13 6 2 11 8 11 13 0 5 -5 11 -11 13 -6 2
-11 -4 -11 -13z"/>
<path d="M5500 4471 c0 -6 5 -13 10 -16 6 -3 10 1 10 9 0 9 -4 16 -10 16 -5 0
-10 -4 -10 -9z"/>
<path d="M1964 4351 c-27 -41 -25 -61 5 -61 30 0 52 33 45 68 -4 18 -10 32
-15 32 -5 0 -20 -18 -35 -39z"/>
<path d="M5974 3824 c3 -9 6 -18 6 -20 0 -2 5 -4 10 -4 6 0 10 9 10 20 0 12
-7 20 -16 20 -11 0 -14 -5 -10 -16z"/>
<path d="M2613 3228 c3 -19 39 -31 48 -16 11 18 1 28 -27 28 -14 0 -23 -5 -21
-12z"/>
<path d="M4956 3175 c4 -16 24 -82 45 -145 21 -62 39 -122 39 -132 0 -10 5
-18 10 -18 6 0 10 -22 10 -50 0 -52 8 -61 30 -35 11 13 10 14 -4 9 -13 -5 -16
0 -16 25 0 17 4 31 10 31 5 0 9 10 7 22 -1 14 4 23 13 23 9 0 16 11 18 28 3
21 9 27 28 27 18 0 24 5 24 21 0 12 15 36 34 55 18 18 36 45 38 58 6 29 -8 56
-27 56 -8 0 -15 4 -15 8 0 4 -8 8 -17 9 -10 1 -40 6 -66 12 -26 6 -72 9 -102
7 -34 -2 -56 1 -59 8 -3 6 -3 -2 0 -19z"/>
<path d="M2647 3000 c9 -22 27 -49 40 -62 l24 -23 -3 49 c-3 46 -5 50 -39 62
l-37 12 15 -38z"/>
<path d="M5360 2990 c0 -5 -22 -10 -49 -10 -48 0 -107 -21 -94 -33 3 -4 1 -7
-5 -7 -7 0 -12 -13 -12 -30 0 -17 5 -30 13 -30 8 0 7 -3 -3 -10 -22 -14 -5
-23 29 -15 34 7 42 25 13 25 -25 0 -24 28 1 36 13 4 23 1 28 -9 8 -13 14 -12
51 6 69 34 95 68 62 81 -23 9 -34 7 -34 -4z"/>
<path d="M872 2900 c0 -14 2 -19 5 -12 2 6 2 18 0 25 -3 6 -5 1 -5 -13z"/>
<path d="M3085 1960 c-3 -5 -1 -10 4 -10 6 0 11 5 11 10 0 6 -2 10 -4 10 -3 0
-8 -4 -11 -10z"/>
<path d="M6320 1889 c0 -5 5 -7 10 -4 6 3 10 8 10 11 0 2 -4 4 -10 4 -5 0 -10
-5 -10 -11z"/>
<path d="M6241 1874 c0 -11 3 -14 6 -6 3 7 2 16 -1 19 -3 4 -6 -2 -5 -13z"/>
<path d="M6120 1850 c0 -5 5 -10 10 -10 6 0 10 5 10 10 0 6 -4 10 -10 10 -5 0
-10 -4 -10 -10z"/>
<path d="M4896 1555 c4 -8 8 -15 10 -15 2 0 4 7 4 15 0 8 -4 15 -10 15 -5 0
-7 -7 -4 -15z"/>
</g>
</svg>
